<svg version='1.1' baseProfile='full' xmlns='http://www.w3.org/2000/svg' width='1153.456437894178' height='133.0932636860618'><g transform='translate(5, 5)'><g transform='scale(0.7863029120578854) translate(11.21875, -60)'><g><g><polyline points="20,120 42,120 64,120 " style="fill: none; stroke: black;"></polyline></g></g><g><g><polyline points="84,120 106,120 128,120 " style="fill: none; stroke: black;"></polyline></g></g><g><g><polyline points="148,120 170,120 192,120 " style="fill: none; stroke: black;"></polyline></g></g><g><g><polyline points="212,120 234,120 256,120 " style="fill: none; stroke: black;"></polyline></g></g><g><g><polyline points="276,120 298,120 320,120 " style="fill: none; stroke: black;"></polyline></g></g><g><g><polyline points="380,120 402,120 424,120 " style="fill: none; stroke: black;"></polyline></g></g><g><g><polyline points="484,120 506,120 528,120 " style="fill: none; stroke: black;"></polyline></g></g><g><g><polyline points="588,120 610,120 632,120 " style="fill: none; stroke: black;"></polyline></g></g><g><g><polyline points="692,120 714,120 736,120 " style="fill: none; stroke: black;"></polyline></g></g><g><g><polyline points="796,120 818,120 840,120 " style="fill: none; stroke: black;"></polyline></g></g><g><g><polyline points="860,120 882,120 904,120 " style="fill: none; stroke: black;"></polyline></g></g><g><g><polyline points="924,120 946,120 968,120 " style="fill: none; stroke: black;"></polyline></g></g><g><g><polyline points="988,120 1010,120 1032,120 " style="fill: none; stroke: black;"></polyline></g></g><g><g><polyline points="1052,120 1074,120 1096,120 " style="fill: none; stroke: black;"></polyline></g></g><g><g><polyline points="1116,120 1138,120 1160,120 " style="fill: none; stroke: black;"></polyline></g></g><g><g><polyline points="1180,120 1202,120 1224,120 " style="fill: none; stroke: black;"></polyline></g></g><g><g><polyline points="1244,120 1266,120 1288,120 " style="fill: none; stroke: black;"></polyline></g></g><g><g><polyline points="1308,120 1330,120 1352,120 " style="fill: none; stroke: black;"></polyline></g></g><g><g><polyline points="1372,120 1394,120 1416,120 " style="fill: none; stroke: black;"></polyline></g></g><g></g><g><g transform="translate(0, 60)"><path d="M 0 0 L 20 0 V 120 L 0 120 V 0 z" style="fill: rgb(86, 180, 233); stroke: rgb(41, 160, 227); stroke-width: 4; stroke-linejoin: round;"></path><g></g><text text-anchor="middle" x="10" y="137" font-size="12">32</text><text text-anchor="middle" x="10" y="154" font-size="12">Conv3D</text></g></g><g><g transform="translate(64, 60)"><path d="M 0 0 L 20 0 V 120 L 0 120 V 0 z" style="fill: rgb(0, 114, 178); stroke: rgb(0, 81, 127); stroke-width: 4; stroke-linejoin: round;"></path><g></g><text text-anchor="middle" x="10" y="137" font-size="12">32</text><text text-anchor="middle" x="10" y="154" font-size="12">Normalization</text></g></g><g><g transform="translate(128, 60)"><path d="M 0 0 L 20 17.142857142857146 V 102.85714285714286 L 0 120 V 0 z" style="fill: rgb(86, 180, 233); stroke: rgb(41, 160, 227); stroke-width: 4; stroke-linejoin: round;"></path><g></g><text text-anchor="middle" x="10" y="137" font-size="12">32</text><text text-anchor="middle" x="10" y="154" font-size="12">Conv3D</text></g></g><g><g transform="translate(192, 60)"><path d="M 0 17.142857142857146 L 20 17.142857142857146 V 102.85714285714286 L 0 102.85714285714286 V 17.142857142857146 z" style="fill: rgb(0, 114, 178); stroke: rgb(0, 81, 127); stroke-width: 4; stroke-linejoin: round;"></path><g></g><text text-anchor="middle" x="10" y="119.85714285714286" font-size="12">32</text><text text-anchor="middle" x="10" y="136.85714285714286" font-size="12">Normalization</text></g></g><g><g transform="translate(256, 60)"><path d="M 0 17.142857142857146 L 20 17.142857142857146 V 102.85714285714286 L 0 102.85714285714286 V 17.142857142857146 z" style="fill: rgb(213, 94, 0); stroke: rgb(162, 71, 0); stroke-width: 4; stroke-linejoin: round;"></path><g></g><text text-anchor="middle" x="10" y="119.85714285714286" font-size="12">32</text><text text-anchor="middle" x="10" y="136.85714285714286" font-size="12">Dropout</text></g></g><g><g transform="translate(320, 60)"><path d="M 0 17.142857142857146 L 60 17.142857142857146 V 102.85714285714286 L 0 102.85714285714286 V 17.142857142857146 z" style="fill: rgb(86, 180, 233); stroke: rgb(41, 160, 227); stroke-width: 4; stroke-linejoin: round;"></path><g></g><text text-anchor="middle" x="30" y="119.85714285714286" font-size="12">64</text><text text-anchor="middle" x="30" y="136.85714285714286" font-size="12">Conv3D</text></g></g><g><g transform="translate(424, 60)"><path d="M 0 17.142857142857146 L 60 17.142857142857146 V 102.85714285714286 L 0 102.85714285714286 V 17.142857142857146 z" style="fill: rgb(0, 114, 178); stroke: rgb(0, 81, 127); stroke-width: 4; stroke-linejoin: round;"></path><g></g><text text-anchor="middle" x="30" y="119.85714285714286" font-size="12">64</text><text text-anchor="middle" x="30" y="136.85714285714286" font-size="12">Normalization</text></g></g><g><g transform="translate(528, 60)"><path d="M 0 17.142857142857146 L 60 25.714285714285715 V 94.28571428571428 L 0 102.85714285714286 V 17.142857142857146 z" style="fill: rgb(86, 180, 233); stroke: rgb(41, 160, 227); stroke-width: 4; stroke-linejoin: round;"></path><g></g><text text-anchor="middle" x="30" y="119.85714285714286" font-size="12">64</text><text text-anchor="middle" x="30" y="136.85714285714286" font-size="12">Conv3D</text></g></g><g><g transform="translate(632, 60)"><path d="M 0 25.714285714285715 L 60 25.714285714285715 V 94.28571428571428 L 0 94.28571428571428 V 25.714285714285715 z" style="fill: rgb(0, 114, 178); stroke: rgb(0, 81, 127); stroke-width: 4; stroke-linejoin: round;"></path><g></g><text text-anchor="middle" x="30" y="111.28571428571428" font-size="12">64</text><text text-anchor="middle" x="30" y="128.28571428571428" font-size="12">Normalization</text></g></g><g><g transform="translate(736, 60)"><path d="M 0 25.714285714285715 L 60 25.714285714285715 V 94.28571428571428 L 0 94.28571428571428 V 25.714285714285715 z" style="fill: rgb(213, 94, 0); stroke: rgb(162, 71, 0); stroke-width: 4; stroke-linejoin: round;"></path><g></g><text text-anchor="middle" x="30" y="111.28571428571428" font-size="12">64</text><text text-anchor="middle" x="30" y="128.28571428571428" font-size="12">Dropout</text></g></g><g><g transform="translate(840, 60)"><path d="M 0 25.714285714285715 L 20 25.714285714285715 V 94.28571428571428 L 0 94.28571428571428 V 25.714285714285715 z" style="fill: rgb(86, 180, 233); stroke: rgb(41, 160, 227); stroke-width: 4; stroke-linejoin: round;"></path><g></g><text text-anchor="middle" x="10" y="111.28571428571428" font-size="12">32</text><text text-anchor="middle" x="10" y="128.28571428571428" font-size="12">Conv3D</text></g></g><g><g transform="translate(904, 60)"><path d="M 0 25.714285714285715 L 20 25.714285714285715 V 94.28571428571428 L 0 94.28571428571428 V 25.714285714285715 z" style="fill: rgb(0, 114, 178); stroke: rgb(0, 81, 127); stroke-width: 4; stroke-linejoin: round;"></path><g></g><text text-anchor="middle" x="10" y="111.28571428571428" font-size="12">32</text><text text-anchor="middle" x="10" y="128.28571428571428" font-size="12">Normalization</text></g></g><g><g transform="translate(968, 60)"><path d="M 0 25.714285714285715 L 20 30 V 90 L 0 94.28571428571428 V 25.714285714285715 z" style="fill: rgb(86, 180, 233); stroke: rgb(41, 160, 227); stroke-width: 4; stroke-linejoin: round;"></path><g></g><text text-anchor="middle" x="10" y="111.28571428571428" font-size="12">32</text><text text-anchor="middle" x="10" y="128.28571428571428" font-size="12">Conv3D</text></g></g><g><g transform="translate(1032, 60)"><path d="M 0 30 L 20 30 V 90 L 0 90 V 30 z" style="fill: rgb(0, 114, 178); stroke: rgb(0, 81, 127); stroke-width: 4; stroke-linejoin: round;"></path><g></g><text text-anchor="middle" x="10" y="107" font-size="12">32</text><text text-anchor="middle" x="10" y="124" font-size="12">Normalization</text></g></g><g><g transform="translate(1096, 60)"><path d="M 0 30 L 20 30 V 90 L 0 90 V 30 z" style="fill: rgb(213, 94, 0); stroke: rgb(162, 71, 0); stroke-width: 4; stroke-linejoin: round;"></path><g></g><text text-anchor="middle" x="10" y="107" font-size="12">32</text><text text-anchor="middle" x="10" y="124" font-size="12">Dropout</text></g></g><g><g transform="translate(1160, 60)"><path d="M 0 0 L 20 0 V 120 L 0 120 V 0 z" style="fill: rgb(230, 159, 0); stroke: rgb(230, 159, 0); stroke-width: 4; stroke-linejoin: round;"></path><g></g><text text-anchor="middle" x="10" y="137" font-size="12">20000</text><text text-anchor="middle" x="10" y="154" font-size="12">Resampling</text></g></g><g><g transform="translate(1224, 60)"><path d="M 0 0 L 20 0 V 120 L 0 120 V 0 z" style="fill: rgb(0, 0, 0); stroke: rgb(0, 0, 0); stroke-width: 4; stroke-linejoin: round;"></path><g></g><text text-anchor="middle" x="10" y="137" font-size="12">128</text><text text-anchor="middle" x="10" y="154" font-size="12">Dense</text></g></g><g><g transform="translate(1288, 60)"><path d="M 0 0 L 20 0 V 120 L 0 120 V 0 z" style="fill: rgb(0, 114, 178); stroke: rgb(0, 114, 178); stroke-width: 4; stroke-linejoin: round;"></path><g></g><text text-anchor="middle" x="10" y="137" font-size="12">128</text><text text-anchor="middle" x="10" y="154" font-size="12">Normalization</text></g></g><g><g transform="translate(1352, 60)"><path d="M 0 0 L 20 0 V 120 L 0 120 V 0 z" style="fill: rgb(213, 94, 0); stroke: rgb(213, 94, 0); stroke-width: 4; stroke-linejoin: round;"></path><g></g><text text-anchor="middle" x="10" y="137" font-size="12">128</text><text text-anchor="middle" x="10" y="154" font-size="12">Dropout</text></g></g><g><g transform="translate(1416, 60)"><path d="M 0 30 L 20 30 V 90 L 0 90 V 30 z" style="fill: rgb(0, 0, 0); stroke: rgb(0, 0, 0); stroke-width: 4; stroke-linejoin: round;"></path><g></g><text text-anchor="middle" x="10" y="107" font-size="12">9</text><text text-anchor="middle" x="10" y="124" font-size="12">Dense</text></g></g></g></g></svg>